<mxfile host="app.diagrams.net" agent="Mozilla/5.0 (Windows NT 10.0; Win64; x64) AppleWebKit/537.36 (KHTML, like Gecko) Chrome/135.0.0.0 Safari/537.36 Edg/135.0.0.0" version="26.2.14">
  <diagram name="第 1 页" id="_3apzQWNts1fiMa5BOEU">
    <mxGraphModel dx="727" dy="317" grid="1" gridSize="10" guides="1" tooltips="1" connect="1" arrows="1" fold="1" page="1" pageScale="1" pageWidth="827" pageHeight="1169" math="0" shadow="0">
      <root>
        <mxCell id="0" />
        <mxCell id="1" parent="0" />
        <mxCell id="du3ij_6MLwKsIhkfcnGm-9" style="edgeStyle=orthogonalEdgeStyle;rounded=0;orthogonalLoop=1;jettySize=auto;html=1;exitX=0.5;exitY=0;exitDx=0;exitDy=0;entryX=0;entryY=0.5;entryDx=0;entryDy=0;" edge="1" parent="1" source="du3ij_6MLwKsIhkfcnGm-1" target="du3ij_6MLwKsIhkfcnGm-5">
          <mxGeometry relative="1" as="geometry" />
        </mxCell>
        <mxCell id="du3ij_6MLwKsIhkfcnGm-10" value="卡顿问题" style="edgeLabel;html=1;align=center;verticalAlign=middle;resizable=0;points=[];" vertex="1" connectable="0" parent="du3ij_6MLwKsIhkfcnGm-9">
          <mxGeometry x="0.1118" relative="1" as="geometry">
            <mxPoint as="offset" />
          </mxGeometry>
        </mxCell>
        <mxCell id="du3ij_6MLwKsIhkfcnGm-14" style="edgeStyle=orthogonalEdgeStyle;rounded=0;orthogonalLoop=1;jettySize=auto;html=1;exitX=1;exitY=0.5;exitDx=0;exitDy=0;" edge="1" parent="1" source="du3ij_6MLwKsIhkfcnGm-1">
          <mxGeometry relative="1" as="geometry">
            <mxPoint x="290" y="149.8095238095238" as="targetPoint" />
          </mxGeometry>
        </mxCell>
        <mxCell id="du3ij_6MLwKsIhkfcnGm-15" value="证书问题" style="edgeLabel;html=1;align=center;verticalAlign=middle;resizable=0;points=[];" vertex="1" connectable="0" parent="du3ij_6MLwKsIhkfcnGm-14">
          <mxGeometry x="-0.1519" relative="1" as="geometry">
            <mxPoint as="offset" />
          </mxGeometry>
        </mxCell>
        <mxCell id="du3ij_6MLwKsIhkfcnGm-1" value="用户提问&lt;div&gt;（IP）&lt;/div&gt;" style="rounded=0;whiteSpace=wrap;html=1;" vertex="1" parent="1">
          <mxGeometry x="80" y="120" width="120" height="60" as="geometry" />
        </mxCell>
        <mxCell id="du3ij_6MLwKsIhkfcnGm-5" value="分析当前服务器性能状况（cpu、内存）" style="rounded=0;whiteSpace=wrap;html=1;" vertex="1" parent="1">
          <mxGeometry x="294" y="40" width="120" height="60" as="geometry" />
        </mxCell>
        <mxCell id="du3ij_6MLwKsIhkfcnGm-35" style="edgeStyle=orthogonalEdgeStyle;rounded=0;orthogonalLoop=1;jettySize=auto;html=1;exitX=1;exitY=0.5;exitDx=0;exitDy=0;entryX=0;entryY=0.5;entryDx=0;entryDy=0;" edge="1" parent="1" source="du3ij_6MLwKsIhkfcnGm-12" target="du3ij_6MLwKsIhkfcnGm-30">
          <mxGeometry relative="1" as="geometry" />
        </mxCell>
        <mxCell id="du3ij_6MLwKsIhkfcnGm-12" value="判断工具类型" style="rounded=0;whiteSpace=wrap;html=1;" vertex="1" parent="1">
          <mxGeometry x="290" y="120" width="120" height="60" as="geometry" />
        </mxCell>
        <mxCell id="du3ij_6MLwKsIhkfcnGm-24" style="edgeStyle=orthogonalEdgeStyle;rounded=0;orthogonalLoop=1;jettySize=auto;html=1;exitX=0.5;exitY=1;exitDx=0;exitDy=0;entryX=0.5;entryY=0;entryDx=0;entryDy=0;" edge="1" parent="1" source="du3ij_6MLwKsIhkfcnGm-30" target="du3ij_6MLwKsIhkfcnGm-22">
          <mxGeometry relative="1" as="geometry">
            <mxPoint x="540" y="170" as="sourcePoint" />
          </mxGeometry>
        </mxCell>
        <mxCell id="du3ij_6MLwKsIhkfcnGm-34" value="否" style="edgeLabel;html=1;align=center;verticalAlign=middle;resizable=0;points=[];" vertex="1" connectable="0" parent="du3ij_6MLwKsIhkfcnGm-24">
          <mxGeometry x="-0.4046" y="-2" relative="1" as="geometry">
            <mxPoint as="offset" />
          </mxGeometry>
        </mxCell>
        <mxCell id="du3ij_6MLwKsIhkfcnGm-27" style="edgeStyle=orthogonalEdgeStyle;rounded=0;orthogonalLoop=1;jettySize=auto;html=1;exitX=0.5;exitY=1;exitDx=0;exitDy=0;entryX=0.5;entryY=0;entryDx=0;entryDy=0;" edge="1" parent="1" source="du3ij_6MLwKsIhkfcnGm-17" target="du3ij_6MLwKsIhkfcnGm-26">
          <mxGeometry relative="1" as="geometry" />
        </mxCell>
        <mxCell id="du3ij_6MLwKsIhkfcnGm-17" value="获取对应工具的证书状态（zabbix获取）" style="rounded=0;whiteSpace=wrap;html=1;" vertex="1" parent="1">
          <mxGeometry x="630" y="120" width="120" height="60" as="geometry" />
        </mxCell>
        <mxCell id="du3ij_6MLwKsIhkfcnGm-28" style="edgeStyle=orthogonalEdgeStyle;rounded=0;orthogonalLoop=1;jettySize=auto;html=1;exitX=0.5;exitY=1;exitDx=0;exitDy=0;entryX=0;entryY=0.5;entryDx=0;entryDy=0;" edge="1" parent="1" source="du3ij_6MLwKsIhkfcnGm-22" target="du3ij_6MLwKsIhkfcnGm-25">
          <mxGeometry relative="1" as="geometry" />
        </mxCell>
        <mxCell id="du3ij_6MLwKsIhkfcnGm-22" value="AI助手给出配置方式" style="rounded=0;whiteSpace=wrap;html=1;" vertex="1" parent="1">
          <mxGeometry x="460" y="250" width="120" height="60" as="geometry" />
        </mxCell>
        <mxCell id="du3ij_6MLwKsIhkfcnGm-25" value="AI助手" style="rounded=1;whiteSpace=wrap;html=1;" vertex="1" parent="1">
          <mxGeometry x="630" y="320" width="120" height="60" as="geometry" />
        </mxCell>
        <mxCell id="du3ij_6MLwKsIhkfcnGm-29" style="edgeStyle=orthogonalEdgeStyle;rounded=0;orthogonalLoop=1;jettySize=auto;html=1;exitX=0.5;exitY=1;exitDx=0;exitDy=0;entryX=0.5;entryY=0;entryDx=0;entryDy=0;" edge="1" parent="1" source="du3ij_6MLwKsIhkfcnGm-26" target="du3ij_6MLwKsIhkfcnGm-25">
          <mxGeometry relative="1" as="geometry" />
        </mxCell>
        <mxCell id="du3ij_6MLwKsIhkfcnGm-26" value="AI助手给出证书席位的状态，若满则失效联系对应管理员" style="rounded=0;whiteSpace=wrap;html=1;" vertex="1" parent="1">
          <mxGeometry x="630" y="240" width="120" height="60" as="geometry" />
        </mxCell>
        <mxCell id="du3ij_6MLwKsIhkfcnGm-32" style="edgeStyle=orthogonalEdgeStyle;rounded=0;orthogonalLoop=1;jettySize=auto;html=1;exitX=1;exitY=0.5;exitDx=0;exitDy=0;entryX=0;entryY=0.5;entryDx=0;entryDy=0;" edge="1" parent="1" source="du3ij_6MLwKsIhkfcnGm-30" target="du3ij_6MLwKsIhkfcnGm-17">
          <mxGeometry relative="1" as="geometry" />
        </mxCell>
        <mxCell id="du3ij_6MLwKsIhkfcnGm-33" value="是" style="edgeLabel;html=1;align=center;verticalAlign=middle;resizable=0;points=[];" vertex="1" connectable="0" parent="du3ij_6MLwKsIhkfcnGm-32">
          <mxGeometry x="-0.2157" y="1" relative="1" as="geometry">
            <mxPoint as="offset" />
          </mxGeometry>
        </mxCell>
        <mxCell id="du3ij_6MLwKsIhkfcnGm-30" value="本地环境变量是否为公共配置" style="rhombus;whiteSpace=wrap;html=1;" vertex="1" parent="1">
          <mxGeometry x="450" y="110" width="140" height="80" as="geometry" />
        </mxCell>
      </root>
    </mxGraphModel>
  </diagram>
</mxfile>
